<svg width="50" height="36" viewBox="0 0 50 36" fill="none" xmlns="http://www.w3.org/2000/svg">
<path d="M49.4581 0.00439898L37.4291 1.43986C37.0305 1.48771 36.8615 1.97217 37.1453 2.25328L40.7262 5.80006L27.0788 19.3173L20.9315 13.2345C20.551 12.8577 19.9411 12.8637 19.5667 13.2345L0.140339 32.4816C0.050434 32.5716 0 32.693 0 32.8196C0 32.9461 0.050434 33.0676 0.140339 33.1575L2.85774 35.8609C3.04494 36.0464 3.35291 36.0464 3.54011 35.8609L20.2491 19.3173L26.3904 25.4C26.7709 25.7709 27.3808 25.7709 27.7552 25.4L44.1441 9.17937L47.725 12.7261C47.7892 12.7894 47.87 12.8335 47.9582 12.8535C48.0465 12.8736 48.1386 12.8686 48.2242 12.8393C48.3098 12.8101 48.3853 12.7576 48.4422 12.6879C48.4992 12.6182 48.5352 12.534 48.5463 12.445L49.9956 0.530733C50.0378 0.225698 49.7721 -0.0374685 49.4581 0.00439898Z" fill="#2AC465"/>
</svg>
