<svg width="46" height="46" viewBox="0 0 46 46" fill="none" xmlns="http://www.w3.org/2000/svg">
<path d="M1 44.9619H45M7.70756 17.9583L39.1333 3.88791M39.1333 3.88791L36.8062 10.0365M39.1333 3.88791L32.9147 1.59424M11.2667 31.4698H5.4C5.01259 31.4748 4.64247 31.6287 4.36851 31.8987C4.09455 32.1687 3.9384 32.5335 3.93333 32.9154V44.9619H12.7333V32.9154C12.7283 32.5335 12.5721 32.1687 12.2982 31.8987C12.0242 31.6287 11.6541 31.4748 11.2667 31.4698ZM25.9333 23.76H20.0667C19.6793 23.7649 19.3091 23.9189 19.0352 24.1889C18.7612 24.4589 18.6051 24.8237 18.6 25.2055V44.9619H27.4V25.2055C27.3949 24.8237 27.2388 24.4589 26.9648 24.1889C26.6909 23.9189 26.3207 23.7649 25.9333 23.76ZM40.6 16.0501H34.7333C34.3459 16.0551 33.9758 16.209 33.7018 16.4791C33.4279 16.7491 33.2717 17.1139 33.2667 17.4957V44.9619H42.0667V17.4957C42.0616 17.1139 41.9055 16.7491 41.6315 16.4791C41.3575 16.209 40.9874 16.0551 40.6 16.0501Z" stroke="#2AC465" stroke-width="1.5" stroke-linecap="round" stroke-linejoin="round"/>
</svg>
