<svg width="215" height="57" viewBox="0 0 215 57" fill="none" xmlns="http://www.w3.org/2000/svg">
<path d="M214.405 3.77631C214.532 3.53079 214.435 3.22929 214.19 3.10291C213.944 2.97652 213.643 3.07309 213.516 3.31861L214.405 3.77631ZM5.63456 2.87675C5.4073 1.42162 4.04346 0.426258 2.58833 0.653523C1.13323 0.880785 0.137851 2.24462 0.365115 3.69974C0.59238 5.15486 1.95622 6.15023 3.41133 5.92297C4.86645 5.6957 5.86183 4.33187 5.63456 2.87675ZM186.86 56.1921L186.859 56.6921L187.165 56.6925L187.305 56.4209L186.86 56.1921ZM30.0233 55.9994L29.5784 56.2275L29.7176 56.499L30.0227 56.4994L30.0233 55.9994ZM213.961 3.54746L213.516 3.31861L186.416 55.9632L186.86 56.1921L187.305 56.4209L214.405 3.77631L213.961 3.54746ZM186.86 56.1921L186.861 55.6921L30.024 55.4994L30.0233 55.9994L30.0227 56.4994L186.859 56.6921L186.86 56.1921ZM30.0233 55.9994L30.4683 55.7713L3.44477 3.06014L2.99983 3.28825L2.55489 3.51635L29.5784 56.2275L30.0233 55.9994Z" fill="#00BAAE"/>
</svg>
