<svg width="221" height="55" viewBox="0 0 221 55" fill="none" xmlns="http://www.w3.org/2000/svg">
<path d="M220.405 1.64545C220.532 1.39993 220.435 1.09844 220.19 0.972046C219.944 0.845657 219.643 0.942231 219.516 1.18775L220.405 1.64545ZM5.63474 38.588C5.40747 37.1329 4.04363 36.1375 2.58851 36.3648C1.13339 36.592 0.138012 37.9559 0.365276 39.411C0.59254 40.8661 1.95638 41.8615 3.41151 41.6342C4.86663 41.407 5.862 40.0431 5.63474 38.588ZM192.86 54.0612L192.859 54.5612L193.165 54.5616L193.305 54.2901L192.86 54.0612ZM36.0233 53.8685L35.818 54.3244L35.9157 54.3684L36.0227 54.3685L36.0233 53.8685ZM219.961 1.4166L219.516 1.18775L192.416 53.8324L192.86 54.0612L193.305 54.2901L220.405 1.64545L219.961 1.4166ZM192.86 54.0612L192.861 53.5612L36.0239 53.3685L36.0233 53.8685L36.0227 54.3685L192.859 54.5612L192.86 54.0612ZM36.0233 53.8685L36.2286 53.4126L3.20529 38.5436L3.00001 38.9995L2.79472 39.4554L35.818 54.3244L36.0233 53.8685Z" fill="#00BAAE"/>
</svg>
