<svg width="346" height="72" viewBox="0 0 346 72" fill="none" xmlns="http://www.w3.org/2000/svg">
<path d="M345.714 68.103C345.876 68.3266 345.826 68.6392 345.602 68.8013C345.379 68.9635 345.066 68.9137 344.904 68.6902L345.714 68.103ZM5.6473 68.7228C5.46713 70.1845 4.13614 71.2234 2.67445 71.0432C1.21277 70.8631 0.173881 69.5321 0.35405 68.0704C0.53422 66.6087 1.86522 65.5698 3.3269 65.75C4.78859 65.9301 5.82747 67.2611 5.6473 68.7228ZM296.309 0.845345L296.309 0.345344L296.564 0.345345L296.714 0.551762L296.309 0.845345ZM41.8234 0.845344L41.3899 0.596202L41.534 0.345344L41.8234 0.345346L41.8234 0.845344ZM345.309 68.3966L344.904 68.6902L295.904 1.13893L296.309 0.845345L296.714 0.551762L345.714 68.103L345.309 68.3966ZM296.309 0.845345L296.309 1.34534L41.8234 1.34535L41.8234 0.845344L41.8234 0.345346L296.309 0.345344L296.309 0.845345ZM41.8234 0.845344L42.2569 1.09449L3.43418 68.6458L3.00068 68.3966L2.56718 68.1475L41.3899 0.596202L41.8234 0.845344Z" fill="#00BAAE"/>
</svg>
