<svg width="132" height="50" viewBox="0 0 132 50" fill="none" xmlns="http://www.w3.org/2000/svg">
<path d="M131.732 48.9084C131.783 49.0368 131.72 49.182 131.592 49.2328C131.464 49.2836 131.318 49.2207 131.268 49.0923L131.732 48.9084ZM2.75864 26.7916C2.66855 27.5225 2.00305 28.0419 1.27221 27.9518C0.541369 27.8618 0.0219257 27.1963 0.112011 26.4654C0.202096 25.7346 0.867594 25.2151 1.59844 25.3052C2.32928 25.3953 2.84872 26.0608 2.75864 26.7916ZM112.533 1.04186L112.533 0.791861L112.703 0.791861L112.765 0.949918L112.533 1.04186ZM16.1404 1.04186L15.9236 0.917289L15.9957 0.791861L16.1404 0.79186L16.1404 1.04186ZM131.5 49.0003L131.268 49.0923L112.3 1.1338L112.533 1.04186L112.765 0.949918L131.732 48.9084L131.5 49.0003ZM112.533 1.04186L112.533 1.29186L16.1404 1.29186L16.1404 1.04186L16.1404 0.79186L112.533 0.791861L112.533 1.04186ZM16.1404 1.04186L16.3571 1.16643L1.65207 26.7531L1.43532 26.6285L1.21857 26.504L15.9236 0.917289L16.1404 1.04186Z" fill="#00BAAE"/>
</svg>
