<svg width="119" height="42" viewBox="0 0 119 42" fill="none" xmlns="http://www.w3.org/2000/svg">
<path d="M118.58 1.11466C118.643 0.9919 118.595 0.841154 118.472 0.777958C118.349 0.714763 118.199 0.76305 118.136 0.88581L118.58 1.11466ZM3.59111 40.3928C3.47748 39.6652 2.79556 39.1675 2.068 39.2811C1.34044 39.3948 0.842751 40.0767 0.956383 40.8043C1.07001 41.5318 1.75194 42.0295 2.4795 41.9159C3.20706 41.8022 3.70475 41.1203 3.59111 40.3928ZM108.093 20.9407L108.093 21.1907L108.245 21.1907L108.315 21.0551L108.093 20.9407ZM12.7742 20.9407L12.7742 20.6907L12.6243 20.6907L12.5537 20.8229L12.7742 20.9407ZM118.358 1.00023L118.136 0.88581L107.87 20.8262L108.093 20.9407L108.315 21.0551L118.58 1.11466L118.358 1.00023ZM108.093 20.9407L108.093 20.6907L12.7742 20.6907L12.7742 20.9407L12.7742 21.1907L108.093 21.1907L108.093 20.9407ZM12.7742 20.9407L12.5537 20.8229L2.05324 40.4807L2.27375 40.5985L2.49426 40.7163L12.9947 21.0584L12.7742 20.9407Z" fill="#00BAAE"/>
</svg>
