<svg width="84" height="31" viewBox="0 0 84 31" fill="none" xmlns="http://www.w3.org/2000/svg">
<path d="M83.0632 0.825202C83.1264 0.702442 83.0782 0.551696 82.9554 0.4885C82.8326 0.425305 82.6819 0.473592 82.6187 0.596352L83.0632 0.825202ZM3.31737 28.7943C3.20373 28.0667 2.52181 27.569 1.79425 27.6826C1.06669 27.7963 0.569004 28.4782 0.682636 29.2057C0.796268 29.9333 1.47819 30.431 2.20575 30.3174C2.93331 30.2037 3.431 29.5218 3.31737 28.7943ZM72.5759 20.6512L72.5757 20.9012L72.7283 20.9013L72.7982 20.7656L72.5759 20.6512ZM2 20.5782L2.00026 20.3282L1.75 20.3279L1.75 20.5782L2 20.5782ZM82.841 0.710777L82.6187 0.596352L72.3537 20.5368L72.5759 20.6512L72.7982 20.7656L83.0632 0.825202L82.841 0.710777ZM72.5759 20.6512L72.5762 20.4012L2.00026 20.3282L2 20.5782L1.99974 20.8282L72.5757 20.9012L72.5759 20.6512ZM2 20.5782L1.75 20.5782L1.75 29L2 29L2.25001 29L2.25001 20.5782L2 20.5782Z" fill="#00BAAE"/>
</svg>
