<svg width="132" height="50" viewBox="0 0 132 50" fill="none" xmlns="http://www.w3.org/2000/svg">
<path d="M0.30658 48.9084C0.255801 49.0368 0.318721 49.182 0.447116 49.2328C0.57551 49.2836 0.720759 49.2207 0.771538 49.0923L0.30658 48.9084ZM129.28 26.7916C129.371 27.5225 130.036 28.0419 130.767 27.9518C131.498 27.8618 132.017 27.1963 131.927 26.4654C131.837 25.7346 131.171 25.2151 130.441 25.3052C129.71 25.3953 129.19 26.0608 129.28 26.7916ZM19.5061 1.04186L19.5062 0.791861L19.3362 0.791861L19.2737 0.949918L19.5061 1.04186ZM115.899 1.04186L116.115 0.917289L116.043 0.791861L115.899 0.79186L115.899 1.04186ZM0.539059 49.0003L0.771538 49.0923L19.7386 1.1338L19.5061 1.04186L19.2737 0.949918L0.30658 48.9084L0.539059 49.0003ZM19.5061 1.04186L19.5061 1.29186L115.899 1.29186L115.899 1.04186L115.899 0.79186L19.5062 0.791861L19.5061 1.04186ZM115.899 1.04186L115.682 1.16643L130.387 26.7531L130.604 26.6285L130.82 26.504L116.115 0.917289L115.899 1.04186Z" fill="#00BAAE"/>
</svg>
