<svg width="118" height="42" viewBox="0 0 118 42" fill="none" xmlns="http://www.w3.org/2000/svg">
<path d="M0.0508058 1.11466C-0.0123893 0.9919 0.0358976 0.841154 0.158658 0.777958C0.281418 0.714763 0.432164 0.76305 0.495359 0.88581L0.0508058 1.11466ZM115.04 40.3928C115.153 39.6652 115.835 39.1675 116.563 39.2811C117.29 39.3948 117.788 40.0767 117.674 40.8043C117.561 41.5318 116.879 42.0295 116.151 41.9159C115.424 41.8022 114.926 41.1203 115.04 40.3928ZM10.5381 20.9407L10.5381 21.1907L10.3856 21.1907L10.3158 21.0551L10.5381 20.9407ZM105.857 20.9407L105.857 20.6907L106.007 20.6907L106.077 20.8229L105.857 20.9407ZM0.273083 1.00023L0.495359 0.88581L10.7604 20.8262L10.5381 20.9407L10.3158 21.0551L0.0508058 1.11466L0.273083 1.00023ZM10.5381 20.9407L10.5381 20.6907L105.857 20.6907L105.857 20.9407L105.857 21.1907L10.5381 21.1907L10.5381 20.9407ZM105.857 20.9407L106.077 20.8229L116.578 40.4807L116.357 40.5985L116.137 40.7163L105.636 21.0584L105.857 20.9407Z" fill="#00BAAE"/>
</svg>
