<svg width="83" height="31" viewBox="0 0 83 31" fill="none" xmlns="http://www.w3.org/2000/svg">
<path d="M0.573474 0.825202C0.510279 0.702442 0.558566 0.551696 0.681326 0.4885C0.804086 0.425305 0.954833 0.473592 1.01803 0.596352L0.573474 0.825202ZM80.3194 28.7943C80.433 28.0667 81.1149 27.569 81.8425 27.6826C82.57 27.7963 83.0677 28.4782 82.9541 29.2057C82.8405 29.9333 82.1585 30.431 81.431 30.3174C80.7034 30.2037 80.2057 29.5218 80.3194 28.7943ZM11.0608 20.6512L11.061 20.9012L10.9084 20.9013L10.8385 20.7656L11.0608 20.6512ZM81.6367 20.5782L81.6365 20.3282L81.8867 20.3279L81.8867 20.5782L81.6367 20.5782ZM0.795751 0.710777L1.01803 0.596352L11.2831 20.5368L11.0608 20.6512L10.8385 20.7656L0.573474 0.825202L0.795751 0.710777ZM11.0608 20.6512L11.0605 20.4012L81.6365 20.3282L81.6367 20.5782L81.637 20.8282L11.061 20.9012L11.0608 20.6512ZM81.6367 20.5782L81.8867 20.5782L81.8867 29L81.6367 29L81.3867 29L81.3867 20.5782L81.6367 20.5782Z" fill="#00BAAE"/>
</svg>
