<svg width="60" height="60" viewBox="0 0 60 60" fill="none" xmlns="http://www.w3.org/2000/svg">
<path d="M30 30C34.1421 30 37.5 26.6421 37.5 22.5C37.5 18.3579 34.1421 15 30 15C25.8579 15 22.5 18.3579 22.5 22.5C22.5 26.6421 25.8579 30 30 30Z" fill="#8306D3"/>
<path fill-rule="evenodd" clip-rule="evenodd" d="M43.6299 39.77C43.6969 39.8959 43.7168 40.0416 43.6861 40.1808C43.6554 40.3201 43.5761 40.4439 43.4624 40.53C39.5784 43.4386 34.8548 45.0072 30.0024 45C25.15 45.0072 20.4265 43.4386 16.5424 40.53C16.4287 40.4439 16.3494 40.3201 16.3188 40.1808C16.2881 40.0416 16.308 39.8959 16.3749 39.77C18.7499 35.48 23.9574 32.5 30.0024 32.5C36.0474 32.5 41.2549 35.4775 43.6299 39.77Z" fill="#8E0CFF"/>
<path d="M43.75 8.75H44.25C48.7275 8.75 50.9675 8.75 52.36 10.14C53.75 11.5325 53.75 13.7725 53.75 18.25V18.75M43.75 51.25H44.25C48.7275 51.25 50.9675 51.25 52.36 49.86C53.75 48.4675 53.75 46.2275 53.75 41.75V41.25M16.25 8.75H15.75C11.2725 8.75 9.0325 8.75 7.6425 10.14C6.25 11.535 6.25 13.775 6.25 18.25V18.75M16.25 51.25H15.75C11.2725 51.25 9.0325 51.25 7.6425 49.86C6.25 48.4675 6.25 46.225 6.25 41.75V41.25" stroke="#8306D3" stroke-width="1.5" stroke-linecap="round"/>
</svg>
