<svg width="60" height="60" viewBox="0 0 60 60" fill="none" xmlns="http://www.w3.org/2000/svg">
<path d="M2.78906 50.1171V34.6028L16.3619 28.7871L29.9348 34.6071V50.1171L16.3619 55.9285L2.78906 50.1171Z" stroke="#2AC465" stroke-width="1.5" stroke-linecap="round" stroke-linejoin="round"/>
<path d="M2.78906 34.5727L16.3619 40.3885L29.9348 34.5727M16.3619 13.3799L29.9305 19.1999L43.5033 13.3842" stroke="#2AC465" stroke-width="1.5" stroke-linecap="round" stroke-linejoin="round"/>
<path d="M29.9297 34.5728L43.5025 40.3885L57.0754 34.5728" stroke="#2AC465" stroke-width="1.5" stroke-linecap="round" stroke-linejoin="round"/>
<path d="M16.3594 40.3971V55.9328M43.5094 40.3971V55.9328M29.9279 19.1999V34.7313M16.3679 28.7785V13.2642L29.9365 7.44849L43.5094 13.2642V28.7785L29.9365 34.5942L16.3679 28.7785ZM29.9279 50.1171V34.6028L43.5008 28.7871L57.0737 34.6071V50.1171L43.5008 55.9285L29.9279 50.1171Z" stroke="#2AC465" stroke-width="1.5" stroke-linecap="round" stroke-linejoin="round"/>
</svg>
