<svg width="60" height="60" viewBox="0 0 60 60" fill="none" xmlns="http://www.w3.org/2000/svg">
<path d="M33.75 57.5V53.75C33.75 53.75 37.5 51.25 43.75 51.25C50 51.25 53.75 53.75 53.75 53.75V57.5M26.25 50H12.5V36.25M47.5 23.75V10H33.75M6.25 27.5V23.75C6.25 23.75 10 21.25 16.25 21.25C22.5 21.25 26.25 23.75 26.25 23.75V27.5M50 41.25C50 42.9076 49.3415 44.4973 48.1694 45.6694C46.9973 46.8415 45.4076 47.5 43.75 47.5C42.0924 47.5 40.5027 46.8415 39.3306 45.6694C38.1585 44.4973 37.5 42.9076 37.5 41.25C37.5 39.5924 38.1585 38.0027 39.3306 36.8306C40.5027 35.6585 42.0924 35 43.75 35C45.4076 35 46.9973 35.6585 48.1694 36.8306C49.3415 38.0027 50 39.5924 50 41.25ZM22.5 11.25C22.5 12.9076 21.8415 14.4973 20.6694 15.6694C19.4973 16.8415 17.9076 17.5 16.25 17.5C14.5924 17.5 13.0027 16.8415 11.8306 15.6694C10.6585 14.4973 10 12.9076 10 11.25C10 9.5924 10.6585 8.00269 11.8306 6.83058C13.0027 5.65848 14.5924 5 16.25 5C17.9076 5 19.4973 5.65848 20.6694 6.83058C21.8415 8.00269 22.5 9.5924 22.5 11.25Z" stroke="#0059D9" stroke-width="1.5"/>
</svg>
