<svg width="60" height="60" viewBox="0 0 60 60" fill="none" xmlns="http://www.w3.org/2000/svg">
<path d="M40 22.5C40 27.1413 38.1563 31.5925 34.8744 34.8744C31.5925 38.1563 27.1413 40 22.5 40C17.8587 40 13.4075 38.1563 10.1256 34.8744C6.84374 31.5925 5 27.1413 5 22.5C5 17.8587 6.84374 13.4075 10.1256 10.1256C13.4075 6.84374 17.8587 5 22.5 5C27.1413 5 31.5925 6.84374 34.8744 10.1256C38.1563 13.4075 40 17.8587 40 22.5Z" stroke="#FFA200" stroke-width="1.5" stroke-linecap="round" stroke-linejoin="round"/>
<path d="M20.065 39.0175C19.8389 36.4221 20.1951 33.8091 21.1077 31.3689C22.0202 28.9288 23.4661 26.7232 25.3397 24.913C27.2133 23.1029 29.4674 21.7339 31.9375 20.906C34.4077 20.0781 37.0315 19.8121 39.6175 20.1275M47.4925 23.1325C49.5936 24.5945 51.3485 26.4997 52.6332 28.7137C53.918 30.9277 54.7014 33.3966 54.9283 35.9463C55.1551 38.4959 54.8199 41.0644 53.9461 43.4704C53.0724 45.8764 51.6815 48.0615 49.8715 49.8715C48.0615 51.6815 45.8764 53.0724 43.4704 53.9461C41.0644 54.8199 38.4959 55.1551 35.9463 54.9283C33.3966 54.7014 30.9277 53.918 28.7137 52.6332C26.4997 51.3485 24.5945 49.5936 23.1325 47.4925M16.25 6.25L38.75 28.75M6.25 16.25L28.75 38.75" stroke="#FFA200" stroke-width="1.5" stroke-linecap="round" stroke-linejoin="round"/>
</svg>
