<svg width="221" height="55" viewBox="0 0 221 55" fill="none" xmlns="http://www.w3.org/2000/svg">
<path d="M0.936498 1.22943C0.810108 0.983914 0.906682 0.682423 1.1522 0.556031C1.39772 0.429642 1.69922 0.526215 1.82561 0.771735L0.936498 1.22943ZM215.707 38.172C215.934 36.7169 217.298 35.7215 218.753 35.9488C220.208 36.176 221.204 37.5399 220.977 38.995C220.749 40.4501 219.385 41.4455 217.93 41.2182C216.475 40.991 215.48 39.6271 215.707 38.172ZM28.4817 53.6452L28.4823 54.1452L28.1769 54.1456L28.0372 53.8741L28.4817 53.6452ZM185.318 53.4525L185.524 53.9084L185.426 53.9524L185.319 53.9525L185.318 53.4525ZM1.38105 1.00058L1.82561 0.771735L28.9263 53.4164L28.4817 53.6452L28.0372 53.8741L0.936498 1.22943L1.38105 1.00058ZM28.4817 53.6452L28.4811 53.1452L185.318 52.9525L185.318 53.4525L185.319 53.9525L28.4823 54.1452L28.4817 53.6452ZM185.318 53.4525L185.113 52.9966L218.137 38.1276L218.342 38.5835L218.547 39.0394L185.524 53.9084L185.318 53.4525Z" fill="#00BAAE"/>
</svg>
