<svg width="346" height="72" viewBox="0 0 346 72" fill="none" xmlns="http://www.w3.org/2000/svg">
<path d="M0.286389 68.271C0.124248 68.4945 0.174011 68.8072 0.39754 68.9693C0.621067 69.1315 0.933714 69.0817 1.09586 68.8582L0.286389 68.271ZM340.353 68.8908C340.533 70.3525 341.864 71.3914 343.326 71.2112C344.787 71.031 345.826 69.7 345.646 68.2384C345.466 66.7767 344.135 65.7378 342.673 65.9179C341.211 66.0981 340.173 67.4291 340.353 68.8908ZM49.6911 1.01331L49.6911 0.513313L49.4361 0.513313L49.2863 0.719731L49.6911 1.01331ZM304.177 1.01331L304.61 0.764171L304.466 0.513312L304.177 0.513314L304.177 1.01331ZM0.691122 68.5646L1.09586 68.8582L50.0958 1.3069L49.6911 1.01331L49.2863 0.719731L0.286389 68.271L0.691122 68.5646ZM49.6911 1.01331L49.6911 1.51331L304.177 1.51332L304.177 1.01331L304.177 0.513314L49.6911 0.513313L49.6911 1.01331ZM304.177 1.01331L303.743 1.26246L342.566 68.8137L342.999 68.5646L343.433 68.3154L304.61 0.764171L304.177 1.01331Z" fill="#00BAAE"/>
</svg>
