<svg width="215" height="57" viewBox="0 0 215 57" fill="none" xmlns="http://www.w3.org/2000/svg">
<path d="M0.61779 3.63344C0.491939 3.38764 0.589175 3.08636 0.834971 2.96051C1.08077 2.83466 1.38205 2.93189 1.5079 3.17769L0.61779 3.63344ZM209.39 3.19192C209.62 1.7373 210.986 0.744925 212.441 0.975381C213.896 1.20584 214.888 2.57185 214.658 4.02647C214.427 5.48109 213.061 6.47346 211.607 6.24301C210.152 6.01255 209.16 4.64654 209.39 3.19192ZM28.0479 56.1095L28.0475 56.6095L27.7421 56.6092L27.6029 56.3374L28.0479 56.1095ZM184.885 56.2609L185.329 56.49L185.189 56.7612L184.884 56.7609L184.885 56.2609ZM1.06284 3.40556L1.5079 3.17769L28.493 55.8816L28.0479 56.1095L27.6029 56.3374L0.61779 3.63344L1.06284 3.40556ZM28.0479 56.1095L28.0484 55.6095L184.885 55.7609L184.885 56.2609L184.884 56.7609L28.0475 56.6095L28.0479 56.1095ZM184.885 56.2609L184.44 56.0318L211.579 3.38011L212.024 3.6092L212.468 3.83828L185.329 56.49L184.885 56.2609Z" fill="#00BAAE"/>
</svg>
