<svg width="41" height="44" viewBox="0 0 41 44" fill="none" xmlns="http://www.w3.org/2000/svg">
<path fill-rule="evenodd" clip-rule="evenodd" d="M26.3693 22.361C26.0302 21.4266 25.402 20.6175 24.5712 20.0454C23.7404 19.4732 22.7479 19.166 21.7304 19.1662V17.9683H19.2708V19.1662C17.9661 19.1662 16.7149 19.671 15.7924 20.5696C14.8698 21.4682 14.3516 22.687 14.3516 23.9578C14.3516 25.2286 14.8698 26.4474 15.7924 27.346C16.7149 28.2446 17.9661 28.7495 19.2708 28.7495V33.5411C18.2009 33.5411 17.2896 32.8763 16.9501 31.9443C16.8998 31.7918 16.8185 31.6507 16.7112 31.5294C16.6039 31.408 16.4727 31.3088 16.3254 31.2377C16.178 31.1666 16.0175 31.125 15.8534 31.1154C15.6892 31.1058 15.5248 31.1283 15.3697 31.1817C15.2147 31.235 15.0722 31.3181 14.9507 31.426C14.8292 31.534 14.7312 31.6646 14.6624 31.81C14.5936 31.9555 14.5555 32.113 14.5502 32.2731C14.545 32.4332 14.5728 32.5926 14.632 32.7421C14.971 33.6765 15.5992 34.4856 16.43 35.0577C17.2608 35.6299 18.2533 35.9371 19.2708 35.9369V37.1348H21.7304V35.9369C23.0351 35.9369 24.2863 35.4321 25.2088 34.5335C26.1314 33.6349 26.6497 32.4161 26.6497 31.1453C26.6497 29.8744 26.1314 28.6557 25.2088 27.7571C24.2863 26.8585 23.0351 26.3536 21.7304 26.3536V21.562C22.2391 21.5619 22.7353 21.7154 23.1507 22.0013C23.5661 22.2873 23.8802 22.6917 24.0498 23.1588C24.1584 23.4584 24.3848 23.7037 24.6791 23.8407C24.8248 23.9086 24.9828 23.9478 25.1441 23.9562C25.3054 23.9646 25.4668 23.9419 25.6191 23.8895C25.7714 23.8371 25.9116 23.7561 26.0317 23.6509C26.1518 23.5457 26.2495 23.4185 26.3192 23.2766C26.3888 23.1347 26.4291 22.9808 26.4377 22.8237C26.4463 22.6666 26.423 22.5093 26.3693 22.361ZM19.2708 21.562C18.6185 21.562 17.9929 21.8144 17.5316 22.2637C17.0703 22.713 16.8112 23.3224 16.8112 23.9578C16.8112 24.5932 17.0703 25.2026 17.5316 25.6519C17.9929 26.1012 18.6185 26.3536 19.2708 26.3536V21.562ZM21.7304 33.5411C22.3827 33.5411 23.0084 33.2887 23.4696 32.8394C23.9309 32.3901 24.19 31.7807 24.19 31.1453C24.19 30.5099 23.9309 29.9005 23.4696 29.4512C23.0084 29.0019 22.3827 28.7495 21.7304 28.7495V33.5411Z" fill="#7765F5"/>
<path fill-rule="evenodd" clip-rule="evenodd" d="M7.16346 3.13972C10.1814 1.70103 15.1326 0 20.5512 0C25.8566 0 30.6774 1.63036 33.6794 3.04988L33.8491 3.13014C34.7542 3.56618 35.4847 3.97826 35.9988 4.31248L31.4559 10.7812C41.9289 21.2102 50.0186 43.1212 20.5512 43.1212C-8.91629 43.1212 -1.04429 21.6079 9.51977 10.7812L5.00637 4.31248C5.35441 4.09086 5.79591 3.83331 6.32227 3.56019C6.58299 3.42363 6.86339 3.28267 7.16346 3.13972ZM28.5363 10.6961L32.1729 5.51757C28.7909 5.75476 24.7669 6.52861 20.893 7.6211C18.126 8.39974 15.0515 8.28115 12.2044 7.76964C11.487 7.64025 10.7745 7.48602 10.0683 7.30725L12.4295 10.6937C17.4902 12.4487 23.4744 12.4487 28.5363 10.6961ZM11.0091 12.7338C16.9306 14.9619 24.0475 14.9619 29.969 12.7314C32.4401 15.2699 34.5078 18.154 36.1033 21.2881C37.766 24.5919 38.6712 27.8945 38.5236 30.7408C38.3809 33.4876 37.2716 35.8343 34.7382 37.5784C32.0978 39.3957 27.657 40.7253 20.5499 40.7253C13.4355 40.7253 8.97374 39.4184 6.30874 37.6216C3.75689 35.9002 2.63653 33.5846 2.47789 30.8749C2.31186 28.0598 3.19732 24.774 4.85388 21.4474C6.43418 18.2753 8.63923 15.2218 11.0091 12.7338ZM9.59479 4.69102C10.5786 4.97612 11.6068 5.22408 12.6496 5.41216C15.2937 5.88653 17.9452 5.95601 20.208 5.31752C22.8449 4.56895 25.527 3.98045 28.2387 3.5554C25.9758 2.89176 23.3293 2.39582 20.5499 2.39582C16.3132 2.39582 12.3619 3.54701 9.59479 4.69102Z" fill="#7765F5"/>
</svg>
