<svg width="43" height="47" viewBox="0 0 43 47" fill="none" xmlns="http://www.w3.org/2000/svg">
<path d="M1 22.2958V27.5202C0.999687 28.8923 1.26114 30.2509 1.76942 31.5186C2.2777 32.7863 3.02286 33.9382 3.96234 34.9085C4.90182 35.8788 6.01721 36.6485 7.24481 37.1737C8.47241 37.6988 9.78817 37.9691 11.1169 37.9691H41.4678M1 9.23718H31.3508C32.6798 9.23686 33.9958 9.50691 35.2237 10.0319C36.4516 10.5569 37.5673 11.3265 38.507 12.2969C39.4467 13.2672 40.1921 14.4192 40.7005 15.6871C41.2089 16.9549 41.4705 18.3138 41.4702 19.686V24.908" stroke="#DF2828" stroke-width="1.5" stroke-linecap="round" stroke-linejoin="round"/>
<path d="M33.8831 30.1325L41.4726 37.9667L33.8831 45.8033M8.5895 17.0739L1 9.23726L8.5895 1.40308" stroke="#DF2828" stroke-width="1.5" stroke-linecap="round" stroke-linejoin="round"/>
</svg>
