<svg width="33" height="50" viewBox="0 0 33 50" fill="none" xmlns="http://www.w3.org/2000/svg">
<path d="M16.448 8.49951L16.4787 12.606M16.6633 37.2451L16.6941 41.3516M7.65101 1.38295L0.850793 1.43727L0.858484 2.4639C1.18166 4.50516 1.43683 6.55777 1.62351 8.61793M7.65101 1.38295L7.6587 2.40958C7.67094 4.04325 7.06858 5.61492 5.98413 6.77883C4.89968 7.94274 3.42197 8.60356 1.87609 8.61591L1.62351 8.61793M7.65101 1.38295L25.1373 1.24328M1.62351 8.61793C2.12892 14.0762 2.4163 19.5544 2.48488 25.0381C2.5177 29.4197 2.31936 35.8833 1.86963 41.47M25.1373 1.24328L31.9375 1.18896L31.9452 2.21559C31.6526 4.26177 31.4283 6.31821 31.2725 8.3811M25.1373 1.24328L25.145 2.26991C25.1572 3.90358 25.7831 5.46544 26.8848 6.61189C27.9866 7.75834 29.474 8.39547 31.0199 8.38312L31.2725 8.3811M1.86963 41.47C1.71383 43.5329 1.48945 45.5894 1.19689 47.6355L1.20459 48.6622L8.0048 48.6078M1.86963 41.47L2.12221 41.468C3.66809 41.4557 5.15552 42.0928 6.25728 43.2392C7.35904 44.3857 7.98487 45.9475 7.99711 47.5812L8.0048 48.6078M8.0048 48.6078L25.4911 48.4682M25.4911 48.4682L32.2913 48.4139L32.2836 47.3872C31.9604 45.346 31.7053 43.2934 31.5186 41.2332M25.4911 48.4682L25.4834 47.4415C25.4711 45.8079 26.0735 44.2362 27.158 43.0723C28.2424 41.9084 29.7201 41.2476 31.266 41.2352L31.5186 41.2332M31.5186 41.2332C31.0132 35.775 30.7258 30.2967 30.6572 24.8131C30.6436 19.3289 30.8489 13.8468 31.2725 8.3811M11.7137 24.9644C11.7035 23.603 12.2055 22.2932 13.1092 21.3233C14.0129 20.3534 15.2444 19.8027 16.5326 19.7924C17.8208 19.7821 19.0603 20.3131 19.9785 21.2685C20.8966 22.2238 21.4181 23.5254 21.4283 24.8868C21.4385 26.2482 20.9366 27.5579 20.0329 28.5278C19.1292 29.4977 17.8977 30.0484 16.6095 30.0587C15.3213 30.069 14.0817 29.5381 13.1636 28.5827C12.2455 27.6273 11.7239 26.3258 11.7137 24.9644Z" stroke="#FFA200"/>
</svg>
