<svg width="44" height="44" viewBox="0 0 44 44" fill="none" xmlns="http://www.w3.org/2000/svg">
<path d="M3.09375 21.8176C3.09375 29.585 3.09375 37.5891 5.86155 40.0011C8.62935 42.4151 13.0855 42.4151 21.9937 42.4151C30.9019 42.4151 35.3581 42.4151 38.1259 40.0011C40.8937 37.5871 40.8937 29.585 40.8937 21.8176" stroke="#0069FF" stroke-width="1.5"/>
<path d="M27.586 26.3532L40.2028 22.6415C41.4523 22.2728 42.0781 22.0895 42.475 21.6487C42.5527 21.5626 42.623 21.4703 42.685 21.3727C43 20.8722 43 20.2337 43 18.9525C43 13.9061 43 11.3829 41.5867 9.6795C41.3149 9.35174 41.0095 9.0522 40.6753 8.78556C38.9386 7.39935 36.3661 7.39935 31.2211 7.39935H12.781C7.636 7.39935 5.0635 7.39935 3.3268 8.78556C2.9908 9.05333 2.687 9.35131 2.4154 9.6795C1 11.3829 1 13.9061 1 18.9525C1 20.2337 1 20.8722 1.315 21.3727C1.378 21.4688 1.448 21.5608 1.525 21.6487C1.924 22.0895 2.5477 22.2728 3.7972 22.6415L16.414 26.3532M10.45 7.39935C12.1783 7.35816 13.936 6.27679 14.524 4.68048L14.5975 4.46832L14.65 4.30972C14.7382 4.04813 14.7844 3.91837 14.8306 3.80302C15.1273 3.07966 15.6271 2.45373 16.2721 1.99796C16.917 1.5422 17.6806 1.27531 18.4741 1.22833C18.598 1.22009 18.7408 1.22009 19.018 1.22009H24.9778C25.2571 1.22009 25.3978 1.22009 25.5238 1.22833C26.3173 1.27531 27.0809 1.5422 27.7258 1.99796C28.3708 2.45373 28.8706 3.07966 29.1673 3.80302C29.2156 3.91837 29.2597 4.05019 29.3479 4.30972L29.4025 4.46832C29.4403 4.57749 29.4571 4.6331 29.476 4.68048C30.064 6.27679 31.8196 7.35816 33.5479 7.39935" stroke="#0069FF" stroke-width="1.5"/>
<path d="M26.2 22.8475H17.8C17.5215 22.8475 17.2545 22.956 17.0575 23.1492C16.8606 23.3423 16.75 23.6043 16.75 23.8774V28.3306C16.75 28.5363 16.8129 28.7372 16.9304 28.9076C17.0479 29.0779 17.2148 29.2098 17.4094 29.2863L18.8794 29.8631C20.8826 30.6492 23.1174 30.6492 25.1206 29.8631L26.5906 29.2863C26.7852 29.2098 26.9521 29.0779 27.0696 28.9076C27.1871 28.7372 27.25 28.5363 27.25 28.3306V23.8774C27.25 23.6043 27.1394 23.3423 26.9425 23.1492C26.7455 22.956 26.4785 22.8475 26.2 22.8475Z" stroke="#0069FF" stroke-width="1.5" stroke-linecap="round"/>
</svg>
