<svg width="53" height="53" viewBox="0 0 53 53" fill="none" xmlns="http://www.w3.org/2000/svg">
<path d="M23.1875 6.625C22.8947 6.625 22.6138 6.74133 22.4067 6.9484C22.1997 7.15547 22.0833 7.43632 22.0833 7.72917C22.0833 8.02201 22.1997 8.30286 22.4067 8.50993C22.6138 8.717 22.8947 8.83333 23.1875 8.83333H24.2917V12.1911C21.5458 12.4172 18.9396 13.4971 16.8385 15.2795L16.8076 15.2463L14.4657 12.9033L15.2463 12.1226C15.4534 11.9155 15.5696 11.6345 15.5695 11.3416C15.5694 11.0487 15.453 10.7678 15.2458 10.5608C15.0386 10.3538 14.7576 10.2375 14.4647 10.2376C14.1718 10.2377 13.891 10.3542 13.6839 10.5614L10.5614 13.6839C10.4588 13.7865 10.3774 13.9082 10.3218 14.0421C10.2663 14.1761 10.2377 14.3197 10.2376 14.4647C10.2376 14.6098 10.2661 14.7534 10.3215 14.8874C10.377 15.0214 10.4583 15.1432 10.5608 15.2458C10.6633 15.3484 10.785 15.4298 10.919 15.4853C11.053 15.5409 11.1966 15.5695 11.3416 15.5695C11.4866 15.5696 11.6303 15.5411 11.7643 15.4856C11.8983 15.4302 12.0201 15.3488 12.1226 15.2463L12.9033 14.4657L15.2463 16.8065L15.2795 16.8396C13.4969 18.9402 12.4166 21.546 12.19 24.2917H8.83333V23.1875C8.83333 22.8947 8.717 22.6138 8.50993 22.4067C8.30286 22.1997 8.02201 22.0833 7.72917 22.0833C7.43632 22.0833 7.15547 22.1997 6.9484 22.4067C6.74133 22.6138 6.625 22.8947 6.625 23.1875V27.6042C6.625 27.897 6.74133 28.1779 6.9484 28.3849C7.15547 28.592 7.43632 28.7083 7.72917 28.7083C8.02201 28.7083 8.30286 28.592 8.50993 28.3849C8.717 28.1779 8.83333 27.897 8.83333 27.6042V26.5H12.1911C12.4172 29.2459 13.4971 31.8521 15.2795 33.9531L15.2463 33.984L12.9033 36.3271L12.1226 35.5464C11.9144 35.3453 11.6355 35.234 11.346 35.2365C11.0565 35.239 10.7795 35.3552 10.5748 35.5599C10.3701 35.7646 10.254 36.0415 10.2514 36.3311C10.2489 36.6206 10.3602 36.8995 10.5614 37.1077L13.6839 40.2303C13.7865 40.3329 13.9082 40.4143 14.0421 40.4698C14.1761 40.5254 14.3197 40.554 14.4647 40.5541C14.6098 40.5541 14.7534 40.5256 14.8874 40.4701C15.0214 40.4147 15.1432 40.3334 15.2458 40.2309C15.3484 40.1284 15.4298 40.0066 15.4853 39.8727C15.5409 39.7387 15.5695 39.5951 15.5695 39.4501C15.5696 39.305 15.5411 39.1614 15.4856 39.0274C15.4302 38.8934 15.3488 38.7716 15.2463 38.669L14.4657 37.8884L16.8065 35.5464L16.8396 35.5133C18.5992 37.0053 20.7189 38.0103 22.9876 38.4283C23.1303 38.4546 23.2768 38.4524 23.4186 38.4221C23.5605 38.3917 23.695 38.3337 23.8145 38.2514C23.9339 38.1691 24.036 38.064 24.1148 37.9422C24.1937 37.8205 24.2478 37.6844 24.274 37.5417C24.3002 37.399 24.2981 37.2525 24.2678 37.1107C24.2374 36.9688 24.1794 36.8343 24.0971 36.7149C24.0148 36.5954 23.9097 36.4933 23.7879 36.4145C23.6662 36.3357 23.53 36.2816 23.3874 36.2553C18.2475 35.3113 14.3542 30.8074 14.3542 25.3958C14.3542 19.2975 19.2975 14.3542 25.3958 14.3542C30.8063 14.3542 35.3113 18.2475 36.2553 23.3863C36.2791 23.531 36.3315 23.6695 36.4094 23.7938C36.4874 23.9181 36.5893 24.0256 36.7092 24.11C36.8292 24.1945 36.9647 24.2542 37.108 24.2856C37.2513 24.3171 37.3994 24.3197 37.5436 24.2933C37.6879 24.2669 37.8255 24.212 37.9483 24.1318C38.0712 24.0516 38.1768 23.9478 38.2591 23.8264C38.3413 23.7049 38.3986 23.5683 38.4274 23.4245C38.4563 23.2807 38.4562 23.1325 38.4272 22.9888C38.0096 20.7192 37.0045 18.5987 35.5122 16.8385L35.5188 16.833L35.5453 16.8076L37.8884 14.4657L38.669 15.2463C38.8762 15.4534 39.1572 15.5696 39.4501 15.5695C39.743 15.5694 40.0238 15.453 40.2309 15.2458C40.4379 15.0386 40.5542 14.7576 40.5541 14.4647C40.554 14.1718 40.4375 13.891 40.2303 13.6839L37.1077 10.5614C37.0052 10.4588 36.8835 10.3774 36.7495 10.3218C36.6156 10.2663 36.472 10.2377 36.3269 10.2376C36.1819 10.2376 36.0383 10.2661 35.9043 10.3215C35.7703 10.377 35.6485 10.4583 35.5459 10.5608C35.4433 10.6633 35.3619 10.785 35.3064 10.919C35.2508 11.053 35.2222 11.1966 35.2221 11.3416C35.2221 11.4866 35.2506 11.6303 35.3061 11.7643C35.3615 11.8983 35.4428 12.0201 35.5453 12.1226L36.3271 12.9033L33.984 15.2463L33.9531 15.2795C31.8523 13.4967 29.246 12.4164 26.5 12.19V8.83333H27.6042C27.897 8.83333 28.1779 8.717 28.3849 8.50993C28.592 8.30286 28.7083 8.02201 28.7083 7.72917C28.7083 7.43632 28.592 7.15547 28.3849 6.9484C28.1779 6.74133 27.897 6.625 27.6042 6.625H23.1875Z" fill="#00BAAE"/>
<path fill-rule="evenodd" clip-rule="evenodd" d="M17.666 22.6353C17.666 21.6104 18.0732 20.6274 18.7979 19.9027C19.5227 19.1779 20.5056 18.7708 21.5306 18.7708C22.5556 18.7708 23.5385 19.1779 24.2633 19.9027C24.988 20.6274 25.3952 21.6104 25.3952 22.6353C25.3952 23.6603 24.988 24.6433 24.2633 25.368C23.5385 26.0928 22.5556 26.4999 21.5306 26.4999C20.5056 26.4999 19.5227 26.0928 18.7979 25.368C18.0732 24.6433 17.666 23.6603 17.666 22.6353ZM21.5306 20.9791C21.0913 20.9791 20.6701 21.1536 20.3595 21.4642C20.0488 21.7748 19.8743 22.1961 19.8743 22.6353C19.8743 23.0746 20.0488 23.4959 20.3595 23.8065C20.6701 24.1171 21.0913 24.2916 21.5306 24.2916C21.9699 24.2916 22.3911 24.1171 22.7017 23.8065C23.0124 23.4959 23.1869 23.0746 23.1869 22.6353C23.1869 22.1961 23.0124 21.7748 22.7017 21.4642C22.3911 21.1536 21.9699 20.9791 21.5306 20.9791ZM34.7806 25.3958C33.284 25.3959 31.8091 25.7539 30.4791 26.44C29.149 27.126 28.0022 28.1202 27.1345 29.3396C26.2668 30.5589 25.7033 31.9681 25.4909 33.4496C25.2786 34.931 25.4236 36.4418 25.9139 37.8558C26.4042 39.2698 27.2255 40.5461 28.3093 41.5781C29.3932 42.6102 30.7081 43.368 32.1444 43.7885C33.5807 44.209 35.0968 44.2799 36.5661 43.9953C38.0354 43.7108 39.4153 43.0789 40.5907 42.1526L45.5926 47.1556C45.7996 47.3628 46.0805 47.4792 46.3734 47.4793C46.6663 47.4794 46.9473 47.3632 47.1544 47.1561C47.3616 46.9491 47.4781 46.6682 47.4782 46.3753C47.4783 46.0824 47.362 45.8015 47.155 45.5943L42.152 40.5913C43.2429 39.2074 43.9222 37.5442 44.112 35.7923C44.3019 34.0403 43.9947 32.2703 43.2255 30.6848C42.4564 29.0993 41.2564 27.7624 39.7629 26.827C38.2695 25.8916 36.5428 25.3956 34.7806 25.3958ZM27.6035 34.7812C27.6035 32.8777 28.3597 31.0522 29.7056 29.7062C31.0516 28.3602 32.8771 27.6041 34.7806 27.6041C36.6841 27.6041 38.5096 28.3602 39.8556 29.7062C41.2015 31.0522 41.9577 32.8777 41.9577 34.7812C41.9577 36.6847 41.2015 38.5102 39.8556 39.8561C38.5096 41.2021 36.6841 41.9583 34.7806 41.9583C32.8771 41.9583 31.0516 41.2021 29.7056 39.8561C28.3597 38.5102 27.6035 36.6847 27.6035 34.7812Z" fill="#00BAAE"/>
</svg>
