<svg width="44" height="44" viewBox="0 0 44 44" fill="none" xmlns="http://www.w3.org/2000/svg">
<path d="M27.5 20.8725L23.9387 17.3113L22 19.25L27.5 24.75L35.75 16.5L33.8113 14.5612L27.5 20.8725ZM11 24.75H13.75V27.5H11V24.75ZM16.5 12.375H9.625V15.125H15.125V17.875H11V22H13.75V20.625H16.5C16.8647 20.625 17.2144 20.4801 17.4723 20.2223C17.7301 19.9644 17.875 19.6147 17.875 19.25V13.75C17.875 13.3853 17.7301 13.0356 17.4723 12.7777C17.2144 12.5199 16.8647 12.375 16.5 12.375Z" fill="#00BAAE"/>
<path d="M24.387 41.25L22 39.875L27.5 30.25H35.75C37.2721 30.25 38.5 29.0221 38.5 27.5V11C38.5 9.47787 37.2721 8.25 35.75 8.25H8.25C6.72787 8.25 5.5 9.47787 5.5 11V27.5C5.5 29.0221 6.72787 30.25 8.25 30.25H20.625V33H8.25C6.79131 33 5.39236 32.4205 4.36091 31.3891C3.32946 30.3576 2.75 28.9587 2.75 27.5V11C2.75 7.96125 5.21125 5.5 8.25 5.5H35.75C38.7887 5.5 41.25 7.96125 41.25 11V27.5C41.25 28.9587 40.6705 30.3576 39.6391 31.3891C38.6076 32.4205 37.2087 33 35.75 33H29.1019L24.387 41.25Z" fill="#00BAAE"/>
</svg>
