<svg width="55" height="55" viewBox="0 0 55 55" fill="none" xmlns="http://www.w3.org/2000/svg">
<path d="M39.9148 7.33325H47.5048L47.6715 7.35659L47.8365 7.40325L47.9365 7.44659C48.0698 7.50436 48.1915 7.5877 48.3015 7.69659L48.3681 7.76992L48.4415 7.86492L48.5315 8.01492L48.5965 8.16492L48.6281 8.27159L48.6515 8.37825L48.6665 8.53659V16.0899C48.6664 16.4066 48.5461 16.7115 48.3299 16.9429C48.1136 17.1743 47.8177 17.315 47.5017 17.3366C47.1857 17.3582 46.8733 17.2591 46.6276 17.0592C46.382 16.8593 46.2213 16.5737 46.1781 16.2599L46.1665 16.0899V11.5983L35.4331 22.3316C35.2215 22.5433 34.9409 22.672 34.6424 22.6943C34.3439 22.7167 34.0473 22.6311 33.8065 22.4533L33.6665 22.3333L28.6165 17.4833L19.1331 26.9649C18.9101 27.1886 18.6107 27.3195 18.295 27.3314C17.9794 27.3432 17.671 27.2352 17.4317 27.0289C17.1925 26.8226 17.0403 26.5334 17.0056 26.2195C16.9709 25.9055 17.0564 25.5901 17.2448 25.3366L17.3665 25.1966L27.7331 14.8299C27.945 14.6185 28.2257 14.4901 28.5242 14.468C28.8227 14.446 29.1192 14.5318 29.3598 14.7099L29.4998 14.8299L34.5498 19.6799L44.3965 9.83325H39.9131C39.6114 9.83284 39.3199 9.72326 39.0926 9.52476C38.8653 9.32626 38.7175 9.05222 38.6765 8.75325L38.6648 8.58325C38.6648 8.28119 38.7742 7.98935 38.9728 7.7617C39.1713 7.53405 39.4456 7.386 39.7448 7.34492L39.9148 7.33325ZM18.2498 32.3333C18.5813 32.3333 18.8993 32.4649 19.1337 32.6994C19.3681 32.9338 19.4998 33.2517 19.4998 33.5833V39.4166C19.4998 39.7481 19.3681 40.066 19.1337 40.3005C18.8993 40.5349 18.5813 40.6666 18.2498 40.6666C17.9183 40.6666 17.6003 40.5349 17.3659 40.3005C17.1315 40.066 16.9998 39.7481 16.9998 39.4166V33.5833C16.9998 33.2517 17.1315 32.9338 17.3659 32.6994C17.6003 32.4649 17.9183 32.3333 18.2498 32.3333ZM27.8331 26.9166C27.8331 26.5851 27.7014 26.2671 27.467 26.0327C27.2326 25.7983 26.9147 25.6666 26.5831 25.6666C26.2516 25.6666 25.9337 25.7983 25.6993 26.0327C25.4648 26.2671 25.3331 26.5851 25.3331 26.9166V39.4166C25.3331 39.7481 25.4648 40.066 25.6993 40.3005C25.9337 40.5349 26.2516 40.6666 26.5831 40.6666C26.9147 40.6666 27.2326 40.5349 27.467 40.3005C27.7014 40.066 27.8331 39.7481 27.8331 39.4166V26.9166ZM34.9165 28.9999C35.248 28.9999 35.5659 29.1316 35.8004 29.366C36.0348 29.6005 36.1665 29.9184 36.1665 30.2499V39.4166C36.1665 39.7481 36.0348 40.066 35.8004 40.3005C35.5659 40.5349 35.248 40.6666 34.9165 40.6666C34.585 40.6666 34.267 40.5349 34.0326 40.3005C33.7982 40.066 33.6665 39.7481 33.6665 39.4166V30.2499C33.6665 29.9184 33.7982 29.6005 34.0326 29.366C34.267 29.1316 34.585 28.9999 34.9165 28.9999ZM44.4998 21.9166C44.4998 21.5851 44.3681 21.2671 44.1337 21.0327C43.8993 20.7983 43.5813 20.6666 43.2498 20.6666C42.9183 20.6666 42.6003 20.7983 42.3659 21.0327C42.1315 21.2671 41.9998 21.5851 41.9998 21.9166V39.4166C41.9998 39.7481 42.1315 40.066 42.3659 40.3005C42.6003 40.5349 42.9183 40.6666 43.2498 40.6666C43.5813 40.6666 43.8993 40.5349 44.1337 40.3005C44.3681 40.066 44.4998 39.7481 44.4998 39.4166V21.9166Z" fill="#00BAAE"/>
</svg>
