<svg width="43" height="43" viewBox="0 0 43 43" fill="none" xmlns="http://www.w3.org/2000/svg">
<g clip-path="url(#clip0_386_246)">
<path d="M39.417 2.38892H26.3976C26.0808 2.38892 25.777 2.51476 25.553 2.73876C25.329 2.96276 25.2031 3.26657 25.2031 3.58336C25.2031 3.90015 25.329 4.20396 25.553 4.42796C25.777 4.65196 26.0808 4.7778 26.3976 4.7778H36.5862L26.0512 15.5278C25.9414 15.64 25.8547 15.7726 25.7962 15.9183C25.7377 16.0639 25.7084 16.2196 25.7101 16.3766C25.7118 16.5335 25.7443 16.6886 25.8059 16.833C25.8675 16.9773 25.9569 17.1081 26.0691 17.2179C26.1813 17.3277 26.3139 17.4144 26.4596 17.4729C26.6052 17.5314 26.7609 17.5607 26.9179 17.559C27.0748 17.5574 27.2299 17.5248 27.3743 17.4632C27.5186 17.4016 27.6494 17.3122 27.7592 17.2L38.2226 6.52169V16.6028C38.2226 16.9196 38.3484 17.2234 38.5724 17.4474C38.7964 17.6714 39.1002 17.7972 39.417 17.7972C39.7338 17.7972 40.0376 17.6714 40.2616 17.4474C40.4856 17.2234 40.6115 16.9196 40.6115 16.6028V3.58336C40.6115 3.26657 40.4856 2.96276 40.2616 2.73876C40.0376 2.51476 39.7338 2.38892 39.417 2.38892Z" fill="#00BAAE"/>
<path d="M13.7847 12.8163L3.03473 18.9916C2.85245 19.0968 2.70122 19.2483 2.59634 19.4308C2.49147 19.6133 2.43667 19.8202 2.43751 20.0307V33.1696C2.43667 33.3801 2.49147 33.587 2.59634 33.7695C2.70122 33.952 2.85245 34.1035 3.03473 34.2088L13.7847 40.3602C13.9663 40.465 14.1723 40.5202 14.382 40.5202C14.5916 40.5202 14.7976 40.465 14.9792 40.3602L25.7292 34.2088C25.9115 34.1035 26.0627 33.952 26.1676 33.7695C26.2724 33.587 26.3272 33.3801 26.3264 33.1696V20.0307C26.3272 19.8202 26.2724 19.6133 26.1676 19.4308C26.0627 19.2483 25.9115 19.0968 25.7292 18.9916L14.9792 12.8163C14.7976 12.7114 14.5916 12.6562 14.382 12.6562C14.1723 12.6562 13.9663 12.7114 13.7847 12.8163ZM13.1397 37.1232L4.77862 32.3454V22.0254L13.1397 26.8032V37.1232ZM14.3342 25.0832L5.74612 20.1502L14.3342 15.2649L22.9461 20.186L14.3342 25.0832ZM23.8897 32.3574L15.5286 37.1352V26.8032L23.8897 22.0254V32.3574Z" fill="#00BAAE"/>
</g>
<defs>
<clipPath id="clip0_386_246">
<rect width="43" height="43" fill="white"/>
</clipPath>
</defs>
</svg>
