<svg width="46" height="45" viewBox="0 0 46 45" fill="none" xmlns="http://www.w3.org/2000/svg">
<path d="M23 13.9619V22.5933L26.3 25.83M39.599 32.2021C43.2004 34.1096 45 35.0655 45 36.6192C45 38.1728 43.2004 39.1288 39.599 41.0363L37.1482 42.3331C34.3828 43.7983 33.0012 44.5298 32.3368 43.999C30.7088 42.6935 33.2454 39.3294 33.868 38.1383C34.5016 36.9299 34.4884 36.2869 33.868 35.1001C33.2454 33.9089 30.7088 30.5449 32.3368 29.2394C33.0012 28.7086 34.3828 29.4401 37.1482 30.9052L39.599 32.2021Z" stroke="#7765F5" stroke-width="1.5" stroke-linecap="round" stroke-linejoin="round"/>
<path d="M25.2572 44.0595C24.5151 44.1329 23.7627 44.1703 23 44.1717C10.8494 44.1717 1 34.5111 1 22.5934C1 10.6756 10.8494 1.01501 23 1.01501C35.1506 1.01501 45 10.6756 45 22.5934C44.9971 24.0751 44.8504 25.5136 44.56 26.909" stroke="#7765F5" stroke-width="1.5" stroke-linecap="round" stroke-linejoin="round"/>
</svg>
